<svg id="visual" viewBox="0 0 900 600" width="900" height="600" xmlns="http://www.w3.org/2000/svg" xmlns:xlink="http://www.w3.org/1999/xlink" version="1.1"><rect x="0" y="0" width="900" height="600" fill="#002233"></rect><path d="M0 135L21.5 147.8C43 160.7 86 186.3 128.8 198.7C171.7 211 214.3 210 257.2 205C300 200 343 191 385.8 188.7C428.7 186.3 471.3 190.7 514.2 183.7C557 176.7 600 158.3 642.8 150.3C685.7 142.3 728.3 144.7 771.2 140.8C814 137 857 127 878.5 122L900 117L900 0L878.5 0C857 0 814 0 771.2 0C728.3 0 685.7 0 642.8 0C600 0 557 0 514.2 0C471.3 0 428.7 0 385.8 0C343 0 300 0 257.2 0C214.3 0 171.7 0 128.8 0C86 0 43 0 21.5 0L0 0Z" fill="#0066FF" stroke-linecap="round" stroke-linejoin="miter"></path></svg>